<?xml version="1.0" encoding="utf-8"?>
<!-- Generator: Adobe Illustrator 23.0.2, SVG Export Plug-In . SVG Version: 6.00 Build 0)  -->
<svg version="1.1" id="Vrstva_1" xmlns="http://www.w3.org/2000/svg" xmlns:xlink="http://www.w3.org/1999/xlink" x="0px" y="0px"
	 viewBox="0 0 812 212" style="enable-background:new 0 0 812 212;" xml:space="preserve">
<style type="text/css">
	.st0{fill:#333359;}
</style>
<path class="st0" d="M115.9,185.9c3.4,3.5,7,7.1,9.7,9.9c1.2,1.2,2.1,2.1,2.8,2.9c3-3,10.9-10.9,18-18c5.2-5.3,10.7-10.7,14.5-14.5
	l-32.4-32.4l-32.2,32.2C101.9,171.7,110.8,180.8,115.9,185.9z"/>
<polygon class="st0" points="147.3,147.4 163.5,163.6 196,131.1 163.6,98.7 131.1,131.2 "/>
<path class="st0" d="M166.2,96.1l32.3,32.3c16.9-18.2,17-46.5,0.1-64.8l-14.6,14.6L166.2,96.1z"/>
<rect x="70.8" y="108.1" transform="matrix(0.7071 -0.7071 0.7071 0.7071 -65.3057 104.5557)" class="st0" width="45.6" height="46"/>
<polygon class="st0" points="172.4,84.8 196.1,61 163.6,28.5 131.1,61 163.6,93.5 "/>
<path class="st0" d="M58.6,128.3l26.7-26.7l5.5-5.5L68.5,73.8l-10-10C41.8,82,41.8,110.2,58.6,128.3z"/>
<rect x="70.5" y="38.2" transform="matrix(0.7071 -0.7071 0.7071 0.7071 -15.822 83.9949)" class="st0" width="46" height="45.8"/>
<path class="st0" d="M96.2,26.1l32.4,32.4l4.2-4.2L161,26c-8.8-8.2-20.3-12.7-32.4-12.7C116.5,13.3,105,17.8,96.2,26.1z"/>
<path class="st0" d="M304.1,139.8v-34.9c0-8.6-4.5-16.4-13.3-16.4c-8.7,0-13.9,7.8-13.9,16.4v34.9h-16.1V74.5h14.9l1.2,7.9
	c3.4-6.6,11-9,17.2-9c7.8,0,15.6,3.2,19.3,12.2c5.8-9.2,13.3-11.9,21.8-11.9c18.5,0,27.6,11.4,27.6,30.9v35.1h-16.1v-35.1
	c0-8.6-3.6-15.9-12.3-15.9c-8.7,0-14.1,7.5-14.1,16.1v34.9H304.1z"/>
<path class="st0" d="M430.7,74.7h15.5v65.1H431l-0.8-9.5c-3.7,7.7-13.9,11.4-21.1,11.5c-19.3,0.1-33.6-11.8-33.6-34.6
	c0-22.5,14.9-34.2,34-34.1c8.7,0,17,4.1,20.7,10.6L430.7,74.7z M391.6,107.2c0,12.4,8.6,19.8,19.3,19.8c25.4,0,25.4-39.5,0-39.5
	C400.2,87.5,391.6,94.7,391.6,107.2z"/>
<path class="st0" d="M459.8,167V74.7h15.1l1.1,9c5-7.3,13.7-10.4,21.1-10.4c20.1,0,33.4,14.9,33.4,34.1c0,19-12,34.1-32.9,34.1
	c-6.9,0-17-2.1-21.7-9.3V167H459.8z M514.3,107.3c0-10.2-6.9-18.5-18.5-18.5c-11.6,0-18.5,8.3-18.5,18.5c0,10.2,7.5,18.5,18.5,18.5
	C506.8,125.8,514.3,117.5,514.3,107.3z"/>
<path class="st0" d="M559.3,54.9v19.7h22.2v5.4h-22.2v39.8c0,8.8,1.9,15.1,12,15.1c3.2,0,6.7-1.1,10-2.6l2.2,5.3
	c-4.1,2-8.2,3.3-12.3,3.3c-13.9,0-18.4-8.2-18.4-21V79.9H539v-5.4h13.9v-19L559.3,54.9z"/>
<path class="st0" d="M605,53.3c0,6.9-10.4,6.9-10.4,0C594.5,46.4,605,46.4,605,53.3z M596.4,74.3v65.5h6.5V74.3H596.4z"/>
<path class="st0" d="M627.8,47.3v92.5h-6.5V47.3H627.8z"/>
<path class="st0" d="M730.5,74.5l0.3,11.6c4.1-8.9,13.3-12.3,21.7-12.3c4.9-0.1,9.6,1.2,14,3.8l-2.9,5.3c-3.4-2.1-7.3-3-11.1-3
	c-12.2,0.1-21.5,9.9-21.5,21.8v38h-6.5V74.5H730.5z"/>
<path class="st0" d="M675.3,135.9c-11.5,0-21.4-7.2-25.5-17.4l0,0l0,0c0,0,0,0,0,0l52.8-14c0,0,0,0,0,0.1l5.6-1.5
	c-2.3-16.5-16.2-29.3-33-29.3c-18.4,0-33.3,15.2-33.3,34c0,18.8,14.9,34,33.3,34c13.8,0,25.6-8.5,30.6-20.7l-5.3-2.3
	C696.5,128.8,686.7,135.9,675.3,135.9z M647.8,107.7c0-15.5,12.3-28.1,27.5-28.1c11.9,0,22,7.7,25.9,18.5l-53.1,14.1
	C647.9,110.7,647.8,109.2,647.8,107.7z"/>
</svg>
