<?xml version="1.0" standalone="no"?>
<!DOCTYPE svg PUBLIC "-//W3C//DTD SVG 20010904//EN"
 "http://www.w3.org/TR/2001/REC-SVG-20010904/DTD/svg10.dtd">
<svg version="1.1" xmlns="http://www.w3.org/2000/svg" width="512" height="512" viewBox="0 0 1024 1024">
<!-- Simplified metallic zigzag logo without background -->
<path d="M200 200 L400 200 L300 300 L500 300 L400 400 L600 400 L500 500 L700 500 L600 600 L800 600 L700 700 L900 700 L800 800 L1000 800 L900 900 L1000 900 L1000 1000 L0 1000 L0 0 L200 0 Z" fill="#C5CCCE"/>
<path d="M150 150 L350 150 L250 250 L450 250 L350 350 L550 350 L450 450 L650 450 L550 550 L750 550 L650 650 L850 650 L750 750 L950 750 L850 850 L950 850 L950 950 L50 950 L50 50 L150 50 Z" fill="#0F1618"/>
<path d="M100 100 L300 100 L200 200 L400 200 L300 300 L500 300 L400 400 L600 400 L500 500 L700 500 L600 600 L800 600 L700 700 L900 700 L800 800 L1000 800 L900 900 L1000 900 L1000 1000 L0 1000 L0 0 L100 0 Z" fill="#EBF0F1"/>
</svg>
